<?xml version="1.0" encoding="utf-8"?>
<!-- Generator: Adobe Illustrator 16.0.0, SVG Export Plug-In . SVG Version: 6.00 Build 0)  -->
<!DOCTYPE svg PUBLIC "-//W3C//DTD SVG 1.1//EN" "http://www.w3.org/Graphics/SVG/1.1/DTD/svg11.dtd">
<svg version="1.1" id="_x30_" xmlns="http://www.w3.org/2000/svg" xmlns:xlink="http://www.w3.org/1999/xlink" x="0px" y="0px"
	 width="1298px" height="976px" viewBox="0 0 1298 976" enable-background="new 0 0 1298 976" xml:space="preserve">
<g id="LWPOLYLINE">
	
		<polygon fill="none" stroke="#000000" stroke-width="0.7087" stroke-linecap="round" stroke-linejoin="round" stroke-miterlimit="10" points="
		448.83,441.05 574.83,441.05 574.83,458.059 718.83,458.059 718.83,441.05 844.83,441.05 844.83,513.051 827.822,513.051 
		827.822,603.051 844.83,603.051 844.83,675.051 448.83,675.051 448.83,603.051 465.838,603.051 465.838,513.051 448.83,513.051 	
		"/>
</g>
<g id="LWPOLYLINE_1_">
	
		<rect x="610.83" y="879.218" fill="none" stroke="#000000" stroke-width="0.7087" stroke-linecap="round" stroke-linejoin="round" stroke-miterlimit="10" width="72" height="9"/>
</g>
<g id="LWPOLYLINE_2_">
	
		<polygon fill="none" stroke="#000000" stroke-width="0.7087" stroke-linecap="round" stroke-linejoin="round" stroke-miterlimit="10" points="
		574.83,703.718 574.83,720.726 718.83,720.726 718.83,703.718 844.83,703.718 844.83,775.718 827.822,775.718 827.822,865.718 
		844.83,865.718 844.83,937.718 448.83,937.718 448.83,865.718 465.838,865.718 465.838,775.718 448.83,775.718 448.83,703.718 	"/>
</g>
<g id="CIRCLE">
	
		<path fill="none" stroke="#000000" stroke-width="0.7087" stroke-linecap="round" stroke-linejoin="round" stroke-miterlimit="10" d="
		M1070.416,621.051c0-6.214-5.037-11.25-11.25-11.25c-6.214,0-11.25,5.036-11.25,11.25c0,6.213,5.036,11.25,11.25,11.25
		C1065.379,632.301,1070.416,627.264,1070.416,621.051L1070.416,621.051z"/>
</g>
<g id="LWPOLYLINE_3_">
	
		<polygon fill="none" stroke="#000000" stroke-width="0.7087" stroke-linecap="round" stroke-linejoin="round" stroke-miterlimit="10" points="
		987.166,441.05 987.166,458.059 1131.166,458.059 1131.166,441.05 1240.158,441.05 1240.158,513.051 1257.166,513.051 
		1257.166,603.051 1240.158,603.051 1240.158,675.051 878.174,675.051 878.174,603.051 861.166,603.051 861.166,513.051 
		878.174,513.051 878.174,441.05 	"/>
</g>
<g id="CIRCLE_1_">
	
		<path fill="none" stroke="#000000" stroke-width="0.7087" stroke-linecap="round" stroke-linejoin="round" stroke-miterlimit="10" d="
		M250.084,621.051c0-6.214-5.036-11.25-11.25-11.25c-6.213,0-11.25,5.036-11.25,11.25c0,6.213,5.037,11.25,11.25,11.25
		C245.048,632.301,250.084,627.264,250.084,621.051L250.084,621.051z"/>
</g>
<g id="LWPOLYLINE_5_">
	
		<polygon fill="none" stroke="#000000" stroke-width="0.7087" stroke-linecap="round" stroke-linejoin="round" stroke-miterlimit="10" points="
		166.834,441.05 166.834,458.059 310.834,458.059 310.834,441.05 419.826,441.05 419.826,513.051 436.834,513.051 436.834,603.051 
		419.826,603.051 419.826,675.051 57.842,675.051 57.842,603.051 40.834,603.051 40.834,513.051 57.842,513.051 57.842,441.05 	"/>
</g>
<g id="LWPOLYLINE_6_">
	
		<polygon fill="none" stroke="#000000" stroke-width="0.7087" stroke-linecap="round" stroke-linejoin="round" stroke-miterlimit="10" points="
		827.822,308.282 827.822,417.274 718.83,417.274 718.83,434.282 574.83,434.282 574.83,417.274 465.838,417.274 465.838,308.282 
		448.83,308.282 448.83,164.282 465.838,164.282 465.838,55.29 574.83,55.29 574.83,38.282 718.83,38.282 718.83,55.29 
		827.822,55.29 827.822,164.282 844.83,164.282 844.83,308.282 	"/>
</g>
</svg>
