0
SECTION
2
HEADER
9
$INSUNITS
70
1
9
$ACADVER
1
AC1014
9
$HANDSEED
5
FFFF
0
ENDSEC
0
SECTION
2
TABLES
0
TABLE
2
VPORT
5
8
100
AcDbSymbolTable
0
ENDTAB
0
TABLE
2
LTYPE
5
5
100
AcDbSymbolTable
0
LTYPE
5
14
100
AcDbSymbolTableRecord
100
AcDbLinetypeTableRecord
2
BYBLOCK
70
0
0
LTYPE
5
15
100
AcDbSymbolTableRecord
100
AcDbLinetypeTableRecord
2
BYLAYER
70
0
0
ENDTAB
0
TABLE
2
LAYER
5
2
100
AcDbSymbolTable
70
2
0
LAYER
5
50
100
AcDbSymbolTableRecord
100
AcDbLayerTableRecord
2
0
70
0
6
CONTINUOUS
0
ENDTAB
0
TABLE
2
STYLE
5
3
100
AcDbSymbolTable
70
1
0
STYLE
5
11
100
AcDbSymbolTableRecord
100
AcDbTextStyleTableRecord
2
STANDARD
70
0
0
ENDTAB
0
TABLE
2
VIEW
5
6
100
AcDbSymbolTable
70
0
0
ENDTAB
0
TABLE
2
UCS
5
7
100
AcDbSymbolTable
70
0
0
ENDTAB
0
TABLE
2
APPID
5
9
100
AcDbSymbolTable
70
2
0
APPID
5
12
100
AcDbSymbolTableRecord
100
AcDbRegAppTableRecord
2
ACAD
70
0
0
ENDTAB
0
TABLE
2
DIMSTYLE
5
A
100
AcDbSymbolTable
70
1
0
ENDTAB
0
TABLE
2
BLOCK_RECORD
5
1
100
AcDbSymbolTable
70
1
0
BLOCK_RECORD
5
1F
100
AcDbSymbolTableRecord
100
AcDbBlockTableRecord
2
*MODEL_SPACE
0
BLOCK_RECORD
5
1B
100
AcDbSymbolTableRecord
100
AcDbBlockTableRecord
2
*PAPER_SPACE
0
ENDTAB
0
ENDSEC
0
SECTION
2
BLOCKS
0
BLOCK
5
20
100
AcDbEntity
100
AcDbBlockBegin
2
*MODEL_SPACE
0
ENDBLK
5
21
100
AcDbEntity
100
AcDbBlockEnd
0
BLOCK
5
1C
100
AcDbEntity
100
AcDbBlockBegin
2
*PAPER_SPACE
0
ENDBLK
5
1D
100
AcDbEntity
100
AcDbBlockEnd
0
ENDSEC
0
SECTION
2
ENTITIES
0
LWPOLYLINE
5
100
100
AcDbEntity
8
0
100
AcDbPolyline
90
16
70
1
43
0.0
10
4.499999849815068
20
0
10
6.249999849815068
20
0
10
6.249999849815068
20
-0.23622047244094491
10
8.2499998498150671
20
-0.23622047244094491
10
8.2499998498150671
20
0
10
9.9999998498150671
20
0
10
9.9999998498150671
20
-1
10
9.7637793773741226
20
-1
10
9.7637793773741226
20
-2.2499999999999996
10
9.9999998498150671
20
-2.2499999999999996
10
9.9999998498150671
20
-3.25
10
4.499999849815068
20
-3.25
10
4.499999849815068
20
-2.2499999999999996
10
4.7362203222560124
20
-2.2499999999999996
10
4.7362203222560124
20
-1
10
4.499999849815068
20
-1
0
LWPOLYLINE
5
101
100
AcDbEntity
8
0
100
AcDbPolyline
90
4
70
1
43
0.0
10
6.7499998498150751
20
-6.0856558158714318
10
6.7499998498150751
20
-6.2106558158714309
10
7.7499998498150715
20
-6.2106558158714309
10
7.7499998498150715
20
-6.0856558158714318
0
LWPOLYLINE
5
102
100
AcDbEntity
8
0
100
AcDbPolyline
90
16
70
1
43
0.0
10
6.2499998498150777
20
-3.6481558158714313
10
6.2499998498150777
20
-3.8843762883123762
10
8.2499998498150724
20
-3.8843762883123762
10
8.2499998498150724
20
-3.6481558158714313
10
9.9999998498150671
20
-3.6481558158714313
10
9.9999998498150671
20
-4.6481558158714318
10
9.7637793773741226
20
-4.6481558158714318
10
9.7637793773741226
20
-5.8981558158714309
10
9.9999998498150671
20
-5.8981558158714309
10
9.9999998498150671
20
-6.8981558158714309
10
4.4999998498150813
20
-6.8981558158714309
10
4.4999998498150813
20
-5.8981558158714309
10
4.7362203222560257
20
-5.8981558158714309
10
4.7362203222560257
20
-4.6481558158714318
10
4.4999998498150813
20
-4.6481558158714318
10
4.4999998498150822
20
-3.6481558158714313
0
CIRCLE
5
103
100
AcDbEntity
8
0
100
AcDbCircle
10
12.97687670242871
20
-2.5
30
0
40
0.15624999999999983
0
LWPOLYLINE
5
104
100
AcDbEntity
8
0
100
AcDbPolyline
90
16
70
1
43
0.0
10
11.97687670242871
20
0
10
11.97687670242871
20
-0.23622047244094491
10
13.976876702428708
20
-0.23622047244094491
10
13.976876702428708
20
0
10
15.490656229987763
20
0
10
15.490656229987763
20
-1
10
15.726876702428708
20
-1.0000000000000002
10
15.726876827806295
20
-2.25
10
15.490656229987763
20
-2.2499999999999996
10
15.490656229987763
20
-3.25
10
10.463097174869654
20
-3.25
10
10.463097174869654
20
-2.2499999999999996
10
10.22687670242871
20
-2.2499999999999996
10
10.22687670242871
20
-1
10
10.463097174869654
20
-1
10
10.463097174869654
20
0
0
LWPOLYLINE
5
105
100
AcDbEntity
8
0
100
AcDbPolyline
90
16
70
1
43
0.0
10
8.2499998498150671
20
0
10
8.2499998498150671
20
-0.23622047244094491
10
6.2499998498150671
20
-0.23622047244094491
10
6.2499998498150671
20
0
10
4.499999849815068
20
0
10
4.499999849815068
20
-1
10
4.7362203222560124
20
-1
10
4.7362203222560124
20
-2.2499999999999996
10
4.499999849815068
20
-2.2499999999999996
10
4.499999849815068
20
-3.25
10
9.9999998498150671
20
-3.25
10
9.9999998498150671
20
-2.2499999999999996
10
9.7637793773741226
20
-2.2499999999999996
10
9.7637793773741226
20
-1
10
9.9999998498150671
20
-1
10
9.9999998498150671
20
0
0
CIRCLE
5
106
100
AcDbEntity
8
0
100
AcDbCircle
10
1.583388325208372
20
-2.5
30
0
40
0.15624999999999983
0
LWPOLYLINE
5
107
100
AcDbEntity
8
0
100
AcDbPolyline
90
16
70
1
43
0.0
10
0.58338832520837181
20
0
10
0.58338832520837181
20
-0.23622047244094491
10
2.5833883252083716
20
-0.23622047244094491
10
2.5833883252083716
20
0
10
4.0971678527674271
20
0
10
4.0971678527674271
20
-1
10
4.3333883252083716
20
-1.0000000000000002
10
4.3333884505859599
20
-2.25
10
4.0971678527674271
20
-2.2499999999999996
10
4.0971678527674271
20
-3.25
10
-0.93039120235068251
20
-3.25
10
-0.93039120235068251
20
-2.2499999999999996
10
-1.1666116747916275
20
-2.2499999999999996
10
-1.1666116747916275
20
-1
10
-0.93039120235068251
20
-1
10
-0.93039120235068273
20
0
0
LWPOLYLINE
5
108
100
AcDbEntity
8
0
100
AcDbPolyline
90
20
70
1
43
0.0
10
9.7637793773741226
20
1.8440027453522099
10
9.7637793773741226
20
0.33022321779315539
10
8.2499998498150671
20
0.33022321779315533
10
8.2499998498150671
20
0.094002745352210509
10
6.2499998498150671
20
0.094002745352210509
10
6.249999849815068
20
0.33022321779315528
10
4.7362203222560124
20
0.33022321779315522
10
4.7362203222560124
20
1.8440027453522105
10
4.499999849815068
20
1.8440027453522099
10
4.499999849815068
20
3.8440027453522094
10
4.7362203222560124
20
3.8440027453522094
10
4.7362203222560124
20
5.3577822729112645
10
6.249999849815068
20
5.3577822729112645
10
6.249999849815068
20
5.5940027453522099
10
8.2499998498150671
20
5.5940027453522099
10
8.2499998498150671
20
5.3577822729112645
10
9.7637793773741226
20
5.3577822729112645
10
9.7637793773741226
20
3.8440027453522094
10
9.9999998498150671
20
3.8440027453522094
10
9.9999998498150671
20
1.8440027453522099
0
ENDSEC
0
SECTION
2
OBJECTS
0
DICTIONARY
5
C
100
AcDbDictionary
3
ACAD_GROUP
350
D
3
ACAD_MLINESTYLE
350
17
0
DICTIONARY
5
D
100
AcDbDictionary
0
DICTIONARY
5
1A
330
C
100
AcDbDictionary
0
DICTIONARY
5
17
100
AcDbDictionary
0
ENDSEC
0
EOF
