<?xml version="1.0" encoding="utf-8"?>
<!-- Generator: Adobe Illustrator 16.0.0, SVG Export Plug-In . SVG Version: 6.00 Build 0)  -->
<!DOCTYPE svg PUBLIC "-//W3C//DTD SVG 1.1//EN" "http://www.w3.org/Graphics/SVG/1.1/DTD/svg11.dtd">
<svg version="1.1" id="_x30_" xmlns="http://www.w3.org/2000/svg" xmlns:xlink="http://www.w3.org/1999/xlink" x="0px" y="0px"
	 width="612px" height="792px" viewBox="0 0 612 792" enable-background="new 0 0 612 792" xml:space="preserve">
<g id="LWPOLYLINE">
	
		<polygon fill="none" stroke="#000000" stroke-width="0.7087" stroke-linecap="round" stroke-linejoin="round" stroke-miterlimit="10" points="
		86.308,265.5 286.292,265.5 286.292,284.58 303.3,284.58 303.3,318.42 286.292,318.42 286.292,337.5 86.308,337.5 86.308,318.42 
		69.3,318.42 69.3,284.58 86.308,284.58 	"/>
</g>
<g id="LWPOLYLINE_1_">
	
		<polygon fill="none" stroke="#000000" stroke-width="0.7087" stroke-linecap="round" stroke-linejoin="round" stroke-miterlimit="10" points="
		331.107,265.5 531.092,265.5 531.092,284.58 548.1,284.58 548.1,318.42 531.092,318.42 531.092,337.5 331.107,337.5 
		331.107,318.42 314.1,318.42 314.1,284.58 331.107,284.58 	"/>
</g>
<g id="LWPOLYLINE_2_">
	
		<polygon fill="none" stroke="#000000" stroke-width="0.7087" stroke-linecap="round" stroke-linejoin="round" stroke-miterlimit="10" points="
		459.9,432.9 63.9,432.9 63.9,414.9 80.908,414.9 80.908,378.9 63.9,378.9 63.9,360.9 459.9,360.9 459.9,378.9 442.893,378.9 
		442.893,414.9 459.9,414.9 	"/>
</g>
<g id="LWPOLYLINE_3_">
	
		<polygon fill="none" stroke="#000000" stroke-width="0.7087" stroke-linecap="round" stroke-linejoin="round" stroke-miterlimit="10" points="
		63.9,508.5 80.908,508.5 80.908,472.5 63.9,472.5 63.9,454.5 459.9,454.5 459.9,472.5 442.893,472.5 442.893,508.5 459.9,508.5 
		459.9,526.5 63.9,526.5 	"/>
</g>
</svg>
