0
SECTION
2
HEADER
9
$INSUNITS
70
1
9
$ACADVER
1
AC1014
9
$HANDSEED
5
FFFF
0
ENDSEC
0
SECTION
2
TABLES
0
TABLE
2
VPORT
5
8
100
AcDbSymbolTable
0
ENDTAB
0
TABLE
2
LTYPE
5
5
100
AcDbSymbolTable
0
LTYPE
5
14
100
AcDbSymbolTableRecord
100
AcDbLinetypeTableRecord
2
BYBLOCK
70
0
0
LTYPE
5
15
100
AcDbSymbolTableRecord
100
AcDbLinetypeTableRecord
2
BYLAYER
70
0
0
ENDTAB
0
TABLE
2
LAYER
5
2
100
AcDbSymbolTable
70
2
0
LAYER
5
50
100
AcDbSymbolTableRecord
100
AcDbLayerTableRecord
2
0
70
0
6
CONTINUOUS
0
ENDTAB
0
TABLE
2
STYLE
5
3
100
AcDbSymbolTable
70
1
0
STYLE
5
11
100
AcDbSymbolTableRecord
100
AcDbTextStyleTableRecord
2
STANDARD
70
0
0
ENDTAB
0
TABLE
2
VIEW
5
6
100
AcDbSymbolTable
70
0
0
ENDTAB
0
TABLE
2
UCS
5
7
100
AcDbSymbolTable
70
0
0
ENDTAB
0
TABLE
2
APPID
5
9
100
AcDbSymbolTable
70
2
0
APPID
5
12
100
AcDbSymbolTableRecord
100
AcDbRegAppTableRecord
2
ACAD
70
0
0
ENDTAB
0
TABLE
2
DIMSTYLE
5
A
100
AcDbSymbolTable
70
1
0
ENDTAB
0
TABLE
2
BLOCK_RECORD
5
1
100
AcDbSymbolTable
70
1
0
BLOCK_RECORD
5
1F
100
AcDbSymbolTableRecord
100
AcDbBlockTableRecord
2
*MODEL_SPACE
0
BLOCK_RECORD
5
1B
100
AcDbSymbolTableRecord
100
AcDbBlockTableRecord
2
*PAPER_SPACE
0
ENDTAB
0
ENDSEC
0
SECTION
2
BLOCKS
0
BLOCK
5
20
100
AcDbEntity
100
AcDbBlockBegin
2
*MODEL_SPACE
0
ENDBLK
5
21
100
AcDbEntity
100
AcDbBlockEnd
0
BLOCK
5
1C
100
AcDbEntity
100
AcDbBlockBegin
2
*PAPER_SPACE
0
ENDBLK
5
1D
100
AcDbEntity
100
AcDbBlockEnd
0
ENDSEC
0
SECTION
2
ENTITIES
0
LWPOLYLINE
5
100
100
AcDbEntity
8
0
100
AcDbPolyline
90
12
70
1
43
0.0
10
2.1112204724409542
20
2.7250000000000258
10
4.8887795275590635
20
2.7249999999999805
10
4.8887795275590591
20
2.45999999999998
10
5.1250000000000036
20
2.459999999999976
10
5.1249999999999964
20
1.989999999999976
10
4.8887795275590511
20
1.9899999999999798
10
4.8887795275590475
20
1.7249999999999797
10
2.1112204724409378
20
1.7250000000000247
10
2.1112204724409422
20
1.9900000000000249
10
1.8749999999999976
20
1.9900000000000291
10
1.8750000000000051
20
2.4600000000000293
10
2.1112204724409498
20
2.4600000000000248
0
LWPOLYLINE
5
101
100
AcDbEntity
8
0
100
AcDbPolyline
90
12
70
1
43
0.0
10
5.511220472440951
20
2.7249999999999868
10
8.2887795275590594
20
2.7249999999999992
10
8.288779527559063
20
2.4599999999999973
10
8.5250000000000075
20
2.4599999999999986
10
8.5250000000000075
20
1.9899999999999987
10
8.2887795275590648
20
1.9899999999999975
10
8.2887795275590648
20
1.7249999999999994
10
5.5112204724409555
20
1.724999999999987
10
5.5112204724409546
20
1.9899999999999851
10
5.2750000000000101
20
1.989999999999984
10
5.2750000000000083
20
2.459999999999984
10
5.5112204724409537
20
2.4599999999999853
0
LWPOLYLINE
5
102
100
AcDbEntity
8
0
100
AcDbPolyline
90
12
70
1
43
0.0
10
7.3000000000000043
20
0.40000000000000135
10
1.8000000000000038
20
0.40000000000000135
10
1.8000000000000027
20
0.65000000000000102
10
2.0362204724409492
20
0.65000000000000113
10
2.0362204724409492
20
1.1499999999999999
10
1.8000000000000027
20
1.1499999999999999
10
1.8000000000000038
20
1.3999999999999995
10
7.3000000000000043
20
1.3999999999999995
10
7.3000000000000069
20
1.1499999999999984
10
7.0637795275590589
20
1.1499999999999984
10
7.0637795275590589
20
0.64999999999999913
10
7.3000000000000069
20
0.64999999999999913
0
LWPOLYLINE
5
103
100
AcDbEntity
8
0
100
AcDbPolyline
90
12
70
1
43
0.0
10
1.7999999999999992
20
-0.65000000000000002
10
2.0362204724409447
20
-0.65000000000000002
10
2.0362204724409447
20
-0.15000000000000002
10
1.7999999999999992
20
-0.15000000000000002
10
1.7999999999999996
20
0.099999999999999811
10
7.2999999999999998
20
0.099999999999999811
10
7.3000000000000025
20
-0.15000000000000199
10
7.0637795275590545
20
-0.15000000000000199
10
7.0637795275590545
20
-0.65000000000000191
10
7.3000000000000025
20
-0.65000000000000191
10
7.2999999999999998
20
-0.90000000000000013
10
1.7999999999999998
20
-0.90000000000000013
0
ENDSEC
0
SECTION
2
OBJECTS
0
DICTIONARY
5
C
100
AcDbDictionary
3
ACAD_GROUP
350
D
3
ACAD_MLINESTYLE
350
17
0
DICTIONARY
5
D
100
AcDbDictionary
0
DICTIONARY
5
1A
330
C
100
AcDbDictionary
0
DICTIONARY
5
17
100
AcDbDictionary
0
ENDSEC
0
EOF
