<?xml version="1.0" encoding="utf-8"?>
<!-- Generator: Adobe Illustrator 16.0.0, SVG Export Plug-In . SVG Version: 6.00 Build 0)  -->
<!DOCTYPE svg PUBLIC "-//W3C//DTD SVG 1.1//EN" "http://www.w3.org/Graphics/SVG/1.1/DTD/svg11.dtd">
<svg version="1.1" id="_x30_" xmlns="http://www.w3.org/2000/svg" xmlns:xlink="http://www.w3.org/1999/xlink" x="0px" y="0px"
	 width="612px" height="792px" viewBox="0 0 612 792" enable-background="new 0 0 612 792" xml:space="preserve">
<g id="LWPOLYLINE">
	
		<path fill="none" stroke="#000000" stroke-width="0.7087" stroke-linecap="round" stroke-linejoin="round" stroke-miterlimit="10" d="
		M276.443,424.62c-9.016-7.439-14.894-18.004-16.463-29.586c-0.484-3.57-3.532-6.234-7.135-6.234H241.2c-3.977,0-7.2-3.223-7.2-7.2
		v-14.22h53.291c-11.83,10.333-13.043,28.299-2.711,40.129c0.842,0.964,1.748,1.869,2.711,2.711h37.418
		c11.83-10.332,13.044-28.298,2.711-40.128c-0.842-0.964-1.747-1.87-2.711-2.711H378v14.22c0,3.977-3.224,7.2-7.2,7.2h-11.646
		c-3.603,0-6.651,2.664-7.135,6.234c-1.568,11.583-7.447,22.147-16.463,29.586H276.443z"/>
</g>
</svg>
