<?xml version="1.0" encoding="utf-8"?>
<!-- Generator: Adobe Illustrator 16.0.0, SVG Export Plug-In . SVG Version: 6.00 Build 0)  -->
<!DOCTYPE svg PUBLIC "-//W3C//DTD SVG 1.1//EN" "http://www.w3.org/Graphics/SVG/1.1/DTD/svg11.dtd">
<svg version="1.1" id="_x30_" xmlns="http://www.w3.org/2000/svg" xmlns:xlink="http://www.w3.org/1999/xlink" x="0px" y="0px"
	 width="612px" height="792px" viewBox="0 0 612 792" enable-background="new 0 0 612 792" xml:space="preserve">
<g id="CIRCLE">
	
		<path fill="none" stroke="#000000" stroke-width="0.7087" stroke-linecap="round" stroke-linejoin="round" stroke-miterlimit="10" d="
		M299.517,430.773c0-1.565-1.269-2.835-2.834-2.835s-2.835,1.27-2.835,2.835s1.27,2.835,2.835,2.835
		S299.517,432.339,299.517,430.773L299.517,430.773z"/>
</g>
<g id="CIRCLE_1_">
	
		<path fill="none" stroke="#000000" stroke-width="0.7087" stroke-linecap="round" stroke-linejoin="round" stroke-miterlimit="10" d="
		M290.834,427.177c0-1.565-1.269-2.835-2.834-2.835s-2.834,1.27-2.834,2.835s1.269,2.835,2.834,2.835
		S290.834,428.742,290.834,427.177L290.834,427.177z"/>
</g>
<g id="CIRCLE_2_">
	
		<path fill="none" stroke="#000000" stroke-width="0.7087" stroke-linecap="round" stroke-linejoin="round" stroke-miterlimit="10" d="
		M283.379,421.456c0-1.565-1.269-2.835-2.835-2.835c-1.565,0-2.834,1.27-2.834,2.835s1.269,2.834,2.834,2.834
		C282.11,424.29,283.379,423.021,283.379,421.456L283.379,421.456z"/>
</g>
<g id="CIRCLE_3_">
	
		<path fill="none" stroke="#000000" stroke-width="0.7087" stroke-linecap="round" stroke-linejoin="round" stroke-miterlimit="10" d="
		M277.658,414c0-1.565-1.269-2.835-2.834-2.835s-2.835,1.27-2.835,2.835s1.27,2.835,2.835,2.835S277.658,415.565,277.658,414
		L277.658,414z"/>
</g>
<g id="CIRCLE_4_">
	
		<path fill="none" stroke="#000000" stroke-width="0.7087" stroke-linecap="round" stroke-linejoin="round" stroke-miterlimit="10" d="
		M274.062,405.317c0-1.565-1.27-2.835-2.835-2.835s-2.834,1.27-2.834,2.835s1.269,2.835,2.834,2.835
		S274.062,406.883,274.062,405.317L274.062,405.317z"/>
</g>
<g id="CIRCLE_5_">
	
		<path fill="none" stroke="#000000" stroke-width="0.7087" stroke-linecap="round" stroke-linejoin="round" stroke-miterlimit="10" d="
		M272.834,396c0-1.565-1.269-2.834-2.834-2.834s-2.834,1.269-2.834,2.834s1.269,2.835,2.834,2.835S272.834,397.565,272.834,396
		L272.834,396z"/>
</g>
<g id="CIRCLE_6_">
	
		<path fill="none" stroke="#000000" stroke-width="0.7087" stroke-linecap="round" stroke-linejoin="round" stroke-miterlimit="10" d="
		M274.062,386.683c0-1.565-1.27-2.835-2.835-2.835s-2.834,1.27-2.834,2.835s1.269,2.834,2.834,2.834
		S274.062,388.248,274.062,386.683L274.062,386.683z"/>
</g>
<g id="CIRCLE_7_">
	
		<path fill="none" stroke="#000000" stroke-width="0.7087" stroke-linecap="round" stroke-linejoin="round" stroke-miterlimit="10" d="
		M277.658,378c0-1.565-1.269-2.834-2.834-2.834s-2.835,1.269-2.835,2.834s1.27,2.834,2.835,2.834S277.658,379.565,277.658,378
		L277.658,378z"/>
</g>
<g id="CIRCLE_8_">
	
		<path fill="none" stroke="#000000" stroke-width="0.7087" stroke-linecap="round" stroke-linejoin="round" stroke-miterlimit="10" d="
		M283.379,370.544c0-1.565-1.269-2.834-2.835-2.834c-1.565,0-2.834,1.269-2.834,2.834c0,1.566,1.269,2.835,2.834,2.835
		C282.11,373.379,283.379,372.11,283.379,370.544L283.379,370.544z"/>
</g>
<g id="CIRCLE_9_">
	
		<path fill="none" stroke="#000000" stroke-width="0.7087" stroke-linecap="round" stroke-linejoin="round" stroke-miterlimit="10" d="
		M290.834,364.823c0-1.565-1.269-2.835-2.834-2.835s-2.834,1.27-2.834,2.835s1.269,2.834,2.834,2.834
		S290.834,366.389,290.834,364.823L290.834,364.823z"/>
</g>
<g id="CIRCLE_10_">
	
		<path fill="none" stroke="#000000" stroke-width="0.7087" stroke-linecap="round" stroke-linejoin="round" stroke-miterlimit="10" d="
		M299.517,361.227c0-1.565-1.269-2.834-2.834-2.834s-2.835,1.269-2.835,2.834s1.27,2.835,2.835,2.835
		S299.517,362.792,299.517,361.227L299.517,361.227z"/>
</g>
<g id="CIRCLE_11_">
	
		<path fill="none" stroke="#000000" stroke-width="0.7087" stroke-linecap="round" stroke-linejoin="round" stroke-miterlimit="10" d="
		M308.835,360c0-1.565-1.27-2.834-2.835-2.834s-2.834,1.269-2.834,2.834s1.269,2.834,2.834,2.834S308.835,361.565,308.835,360
		L308.835,360z"/>
</g>
<g id="CIRCLE_12_">
	
		<path fill="none" stroke="#000000" stroke-width="0.7087" stroke-linecap="round" stroke-linejoin="round" stroke-miterlimit="10" d="
		M318.152,361.227c0-1.565-1.27-2.834-2.835-2.834s-2.835,1.269-2.835,2.834s1.27,2.835,2.835,2.835
		S318.152,362.792,318.152,361.227L318.152,361.227z"/>
</g>
<g id="CIRCLE_13_">
	
		<path fill="none" stroke="#000000" stroke-width="0.7087" stroke-linecap="round" stroke-linejoin="round" stroke-miterlimit="10" d="
		M326.835,364.823c0-1.565-1.27-2.835-2.835-2.835s-2.835,1.27-2.835,2.835s1.27,2.834,2.835,2.834S326.835,366.389,326.835,364.823
		L326.835,364.823z"/>
</g>
<g id="CIRCLE_14_">
	
		<path fill="none" stroke="#000000" stroke-width="0.7087" stroke-linecap="round" stroke-linejoin="round" stroke-miterlimit="10" d="
		M334.29,370.544c0-1.565-1.269-2.834-2.834-2.834s-2.835,1.269-2.835,2.834c0,1.566,1.27,2.835,2.835,2.835
		S334.29,372.11,334.29,370.544L334.29,370.544z"/>
</g>
<g id="CIRCLE_15_">
	
		<path fill="none" stroke="#000000" stroke-width="0.7087" stroke-linecap="round" stroke-linejoin="round" stroke-miterlimit="10" d="
		M340.012,378c0-1.565-1.27-2.834-2.835-2.834s-2.835,1.269-2.835,2.834s1.27,2.834,2.835,2.834S340.012,379.565,340.012,378
		L340.012,378z"/>
</g>
<g id="CIRCLE_16_">
	
		<path fill="none" stroke="#000000" stroke-width="0.7087" stroke-linecap="round" stroke-linejoin="round" stroke-miterlimit="10" d="
		M343.608,386.683c0-1.565-1.27-2.835-2.835-2.835s-2.835,1.27-2.835,2.835s1.27,2.834,2.835,2.834S343.608,388.248,343.608,386.683
		L343.608,386.683z"/>
</g>
<g id="CIRCLE_17_">
	
		<path fill="none" stroke="#000000" stroke-width="0.7087" stroke-linecap="round" stroke-linejoin="round" stroke-miterlimit="10" d="
		M344.835,396c0-1.565-1.27-2.834-2.835-2.834s-2.835,1.269-2.835,2.834s1.27,2.835,2.835,2.835S344.835,397.565,344.835,396
		L344.835,396z"/>
</g>
<g id="CIRCLE_18_">
	
		<path fill="none" stroke="#000000" stroke-width="0.7087" stroke-linecap="round" stroke-linejoin="round" stroke-miterlimit="10" d="
		M343.608,405.317c0-1.565-1.27-2.835-2.835-2.835s-2.835,1.27-2.835,2.835s1.27,2.835,2.835,2.835S343.608,406.883,343.608,405.317
		L343.608,405.317z"/>
</g>
<g id="CIRCLE_19_">
	
		<path fill="none" stroke="#000000" stroke-width="0.7087" stroke-linecap="round" stroke-linejoin="round" stroke-miterlimit="10" d="
		M340.012,414c0-1.565-1.27-2.835-2.835-2.835s-2.835,1.27-2.835,2.835s1.27,2.835,2.835,2.835S340.012,415.565,340.012,414
		L340.012,414z"/>
</g>
<g id="CIRCLE_20_">
	
		<path fill="none" stroke="#000000" stroke-width="0.7087" stroke-linecap="round" stroke-linejoin="round" stroke-miterlimit="10" d="
		M334.29,421.456c0-1.565-1.269-2.835-2.834-2.835s-2.835,1.27-2.835,2.835s1.27,2.834,2.835,2.834S334.29,423.021,334.29,421.456
		L334.29,421.456z"/>
</g>
<g id="CIRCLE_21_">
	
		<path fill="none" stroke="#000000" stroke-width="0.7087" stroke-linecap="round" stroke-linejoin="round" stroke-miterlimit="10" d="
		M326.835,427.177c0-1.565-1.27-2.835-2.835-2.835s-2.835,1.27-2.835,2.835s1.27,2.835,2.835,2.835S326.835,428.742,326.835,427.177
		L326.835,427.177z"/>
</g>
<g id="CIRCLE_22_">
	
		<path fill="none" stroke="#000000" stroke-width="0.7087" stroke-linecap="round" stroke-linejoin="round" stroke-miterlimit="10" d="
		M318.152,430.773c0-1.565-1.27-2.835-2.835-2.835s-2.835,1.27-2.835,2.835s1.27,2.835,2.835,2.835S318.152,432.339,318.152,430.773
		L318.152,430.773z"/>
</g>
<g id="CIRCLE_23_">
	
		<path fill="none" stroke="#000000" stroke-width="0.7087" stroke-linecap="round" stroke-linejoin="round" stroke-miterlimit="10" d="
		M308.835,432c0-1.565-1.27-2.835-2.835-2.835s-2.834,1.27-2.834,2.835s1.269,2.835,2.834,2.835S308.835,433.565,308.835,432
		L308.835,432z"/>
</g>
<g id="CIRCLE_24_">
	
		<path fill="none" stroke="#000000" stroke-width="0.7087" stroke-linecap="round" stroke-linejoin="round" stroke-miterlimit="10" d="
		M317.88,396c0-6.561-5.318-11.88-11.88-11.88c-6.561,0-11.88,5.319-11.88,11.88c0,6.562,5.319,11.88,11.88,11.88
		C312.562,407.88,317.88,402.562,317.88,396L317.88,396z"/>
</g>
<g id="CIRCLE_25_">
	
		<path fill="none" stroke="#000000" stroke-width="0.7087" stroke-linecap="round" stroke-linejoin="round" stroke-miterlimit="10" d="
		M351,396c0-24.853-20.147-45-45-45c-24.853,0-45,20.147-45,45c0,24.853,20.147,45,45,45C330.853,441,351,420.853,351,396L351,396z"
		/>
</g>
</svg>
